<mxfile host="65bd71144e">
    <diagram id="UWpIcCPWmxPu6pcbWCly" name="Page-1">
        <mxGraphModel dx="898" dy="647" grid="1" gridSize="10" guides="1" tooltips="1" connect="1" arrows="1" fold="1" page="1" pageScale="1" pageWidth="850" pageHeight="1100" background="none" math="0" shadow="0">
            <root>
                <mxCell id="0"/>
                <mxCell id="1" parent="0"/>
                <mxCell id="4" value="FrontEnd&lt;br&gt;" style="whiteSpace=wrap;html=1;rounded=0;" vertex="1" parent="1">
                    <mxGeometry x="280" y="110" width="120" height="60" as="geometry"/>
                </mxCell>
                <mxCell id="5" value="Backend&lt;br&gt;" style="whiteSpace=wrap;html=1;rounded=0;" vertex="1" parent="1">
                    <mxGeometry x="440" y="145" width="120" height="60" as="geometry"/>
                </mxCell>
                <mxCell id="7" value="Users&lt;br&gt;" style="shape=actor;whiteSpace=wrap;html=1;fillColor=#03061D;rounded=0;" vertex="1" parent="1">
                    <mxGeometry x="70" y="160" width="90" height="95" as="geometry"/>
                </mxCell>
            </root>
        </mxGraphModel>
    </diagram>
</mxfile>